<?xml version="1.0" standalone="no"?>
<!DOCTYPE svg PUBLIC "-//W3C//DTD SVG 20010904//EN"
 "http://www.w3.org/TR/2001/REC-SVG-20010904/DTD/svg10.dtd">
<svg version="1.0" xmlns="http://www.w3.org/2000/svg"
 width="1900.000000pt" height="1900.000000pt" viewBox="0 0 1900.000000 1900.000000"
 preserveAspectRatio="xMidYMid meet">
<metadata>
Created by potrace 1.14, written by Peter Selinger 2001-2017
</metadata>
<g transform="translate(0.000000,1900.000000) scale(0.100000,-0.100000)"
fill="#000000" stroke="none">
<path d="M6797 18725 l-58 -32 78 -155 c43 -85 84 -168 91 -184 197 -442 344
-871 483 -1409 43 -166 143 -595 155 -665 2 -14 7 -36 9 -50 3 -14 8 -36 10
-50 13 -66 35 -178 40 -200 19 -91 22 -82 -62 -217 -124 -199 -260 -450 -335
-618 -77 -173 -86 -192 -122 -277 -82 -195 -257 -722 -291 -878 -2 -8 -22 -89
-44 -180 -41 -166 -114 -523 -125 -613 -4 -26 -11 -69 -16 -95 -5 -26 -18
-117 -29 -202 -27 -203 -28 -211 -36 -305 -4 -44 -9 -88 -11 -98 -1 -9 -6 -54
-9 -100 -4 -45 -8 -98 -10 -117 -2 -19 -6 -91 -10 -160 -4 -69 -9 -145 -11
-170 -26 -364 -26 -3423 1 -4615 7 -300 16 -649 20 -740 2 -55 7 -176 10 -270
3 -93 8 -210 10 -260 5 -99 13 -262 20 -425 6 -147 14 -294 20 -370 2 -36 7
-108 10 -160 3 -52 8 -120 10 -150 5 -52 9 -104 20 -280 3 -41 8 -96 10 -122
3 -27 7 -72 10 -100 3 -29 7 -73 10 -98 2 -25 7 -79 10 -120 3 -41 8 -82 10
-90 2 -8 7 -46 10 -85 3 -38 8 -77 10 -85 2 -8 7 -46 10 -85 3 -38 8 -79 10
-90 3 -11 7 -36 9 -55 21 -160 28 -205 31 -210 2 -4 6 -26 9 -51 3 -24 17 -98
31 -164 14 -66 28 -131 31 -145 20 -100 77 -266 118 -348 73 -145 172 -195
270 -138 86 50 161 177 241 406 73 210 176 618 221 880 2 14 7 36 9 50 10 47
13 67 44 246 17 98 33 197 36 219 7 48 16 112 21 140 2 11 15 103 29 205 15
102 28 196 30 210 4 23 6 44 21 163 2 20 6 54 9 75 4 35 20 165 31 262 3 25 9
79 14 120 5 41 12 99 15 128 3 28 7 73 10 100 5 44 10 96 20 217 7 73 16 165
20 205 2 19 7 67 10 105 6 75 13 149 20 205 2 19 6 80 10 135 3 55 7 116 10
135 2 19 7 80 10 135 3 55 8 123 10 150 2 28 7 86 10 130 3 44 8 105 10 135 3
30 7 102 10 160 5 109 10 205 20 375 3 55 7 143 10 195 3 52 7 133 10 180 3
47 7 162 10 255 6 202 13 413 20 585 21 563 21 1907 0 2575 -5 147 -16 439
-20 525 -2 47 -7 139 -10 205 -3 66 -8 154 -10 195 -3 41 -7 125 -10 185 -3
61 -7 135 -10 165 -2 30 -7 93 -10 140 -3 47 -7 112 -10 145 -3 33 -7 96 -10
140 -5 73 -8 114 -20 245 -2 25 -7 79 -10 120 -4 41 -8 86 -10 100 -2 14 -7
61 -10 105 -3 44 -7 91 -10 105 -2 14 -7 54 -10 90 -7 81 -13 131 -20 195 -4
28 -8 70 -11 95 -4 52 -14 135 -19 161 -2 10 -6 44 -10 76 -3 32 -7 69 -10 83
-2 14 -7 48 -10 75 -7 62 -16 132 -21 165 -2 14 -6 43 -9 65 -3 22 -12 81 -20
130 -8 50 -16 110 -20 135 -3 25 -14 95 -25 155 -10 61 -21 128 -25 150 -3 22
-10 61 -14 87 -8 48 -8 48 65 150 70 98 202 266 280 358 53 62 379 388 434
434 158 133 217 179 364 282 527 372 1145 622 1810 734 188 32 228 37 331 46
39 3 81 7 95 9 129 22 678 22 900 1 19 -2 71 -7 115 -11 44 -4 87 -8 95 -10 8
-1 42 -6 75 -9 33 -4 67 -9 75 -11 8 -2 38 -7 65 -10 28 -3 57 -7 65 -10 8 -2
33 -6 55 -10 22 -3 108 -19 190 -36 1047 -214 2108 -720 2970 -1418 72 -58
135 -110 141 -116 7 -5 38 -32 70 -60 33 -27 84 -72 114 -100 91 -82 451 -445
515 -519 33 -38 65 -74 71 -80 5 -6 53 -63 105 -126 362 -441 680 -950 896
-1435 17 -38 40 -91 52 -116 164 -369 316 -894 390 -1344 57 -348 75 -575 75
-940 0 -220 -8 -431 -19 -521 -2 -16 -7 -67 -10 -114 -4 -47 -8 -87 -10 -90
-2 -3 -6 -39 -10 -80 -4 -41 -8 -77 -10 -80 -2 -3 -6 -30 -10 -60 -4 -30 -9
-58 -10 -61 -2 -3 -7 -28 -11 -55 -3 -27 -8 -58 -10 -69 -5 -27 -33 -163 -40
-195 -3 -14 -7 -36 -10 -50 -50 -245 -231 -832 -321 -1040 -8 -19 -19 -44 -23
-55 -246 -631 -664 -1371 -1140 -2019 -152 -207 -421 -546 -569 -715 -95 -110
-223 -254 -265 -300 -23 -25 -68 -74 -101 -110 -32 -36 -201 -208 -375 -381
-287 -288 -395 -392 -521 -505 -153 -138 -228 -205 -258 -231 -19 -16 -39 -34
-45 -39 -6 -6 -42 -37 -81 -70 -38 -33 -72 -63 -75 -66 -19 -21 -449 -372
-675 -550 -215 -170 -729 -549 -919 -680 -44 -30 -87 -59 -95 -66 -66 -51
-802 -538 -1003 -664 -92 -57 -196 -122 -230 -143 -163 -102 -464 -282 -668
-399 -246 -142 -261 -150 -400 -225 -52 -28 -129 -69 -170 -92 -115 -63 -522
-268 -635 -320 -33 -15 -100 -47 -150 -70 -189 -89 -235 -110 -241 -110 -3 0
-26 -10 -52 -21 -264 -121 -715 -295 -1077 -418 -117 -39 -517 -159 -559 -167
-10 -2 -58 -14 -105 -28 -47 -13 -140 -36 -206 -51 -66 -15 -128 -29 -137 -31
-10 -2 -26 -6 -35 -8 -119 -27 -451 -87 -568 -101 -27 -4 -61 -8 -75 -10 -115
-16 -160 -21 -261 -30 -36 -4 -86 -8 -110 -11 -253 -23 -856 -23 -1034 1 -16
2 -57 6 -90 10 -96 9 -228 26 -234 29 -3 2 -31 7 -61 10 -30 4 -109 18 -175
32 -66 14 -131 27 -145 30 -59 11 -332 89 -437 125 -314 108 -668 278 -911
440 -56 38 -107 69 -112 69 -4 0 -10 4 -12 8 -1 5 -55 47 -118 94 -664 498
-1179 1245 -1463 2123 -89 273 -141 496 -202 856 -3 15 -7 47 -10 70 -3 24
-10 73 -15 109 -5 36 -12 99 -15 140 -3 41 -8 90 -11 109 -17 128 -24 641 -11
881 10 200 24 369 32 400 2 8 7 47 10 85 9 93 13 129 25 195 14 84 19 111 25
165 4 28 10 66 15 85 5 19 11 51 14 70 25 158 131 588 202 820 80 260 225 664
293 813 12 25 21 48 21 51 0 3 16 40 35 82 19 41 35 77 35 79 0 6 114 245 182
380 358 711 880 1469 1420 2059 21 23 38 44 38 47 0 6 -67 70 -86 82 -7 4 -66
-55 -150 -151 -455 -519 -830 -1050 -1169 -1652 -87 -155 -300 -576 -344 -680
-13 -30 -31 -73 -41 -95 -83 -177 -276 -685 -318 -835 -6 -19 -28 -93 -50
-165 -35 -113 -98 -338 -107 -384 -2 -9 -11 -47 -20 -86 -9 -38 -19 -81 -21
-95 -3 -14 -10 -43 -16 -65 -12 -46 -15 -65 -24 -119 -3 -22 -7 -43 -9 -46 -2
-3 -6 -26 -10 -50 -3 -25 -8 -52 -11 -61 -2 -9 -7 -34 -9 -55 -3 -22 -10 -64
-15 -94 -5 -30 -12 -73 -15 -95 -2 -22 -7 -50 -9 -62 -3 -12 -7 -50 -11 -84
-3 -34 -8 -76 -10 -93 -4 -28 -8 -67 -20 -196 -15 -159 -19 -284 -20 -595 0
-311 4 -437 20 -595 3 -25 7 -72 10 -105 3 -33 8 -71 10 -85 2 -14 7 -44 10
-67 17 -143 19 -155 51 -323 147 -786 444 -1483 880 -2065 45 -60 91 -119 101
-130 10 -12 38 -45 63 -75 57 -70 140 -159 260 -278 422 -417 983 -759 1575
-959 108 -36 345 -105 404 -118 9 -2 50 -11 91 -20 112 -25 152 -33 195 -39
17 -3 71 -12 120 -20 101 -17 137 -22 245 -32 41 -3 77 -8 81 -10 43 -25 1007
-25 1136 0 12 3 54 7 95 11 67 5 198 21 258 30 69 11 118 18 146 20 61 7 428
76 533 101 58 14 117 28 131 30 173 33 776 209 1045 306 61 22 148 53 195 70
120 43 503 195 578 229 34 16 64 29 66 29 6 0 281 123 409 182 176 82 618 303
751 375 120 65 185 100 314 169 37 21 72 40 77 44 6 4 30 19 55 33 40 22 133
76 300 172 75 43 535 322 585 354 22 14 48 31 57 36 22 12 134 84 298 188 158
102 705 466 781 521 31 22 65 47 76 54 489 341 1018 742 1389 1051 49 42 110
92 134 111 24 19 48 40 54 45 6 6 76 66 156 135 303 260 660 592 944 876 105
106 322 335 481 508 19 21 170 192 225 256 30 35 62 71 70 80 8 10 29 35 45
56 17 21 64 79 105 129 41 50 89 108 105 129 17 22 39 51 51 65 247 310 671
937 832 1231 11 19 52 94 92 165 139 252 315 622 427 900 231 572 409 1247
468 1770 3 28 7 66 9 85 3 19 7 67 11 105 3 39 8 93 11 120 12 130 18 572 9
730 -8 143 -16 252 -20 280 -3 17 -7 59 -10 95 -3 36 -7 72 -10 80 -2 8 -6 40
-10 69 -20 200 -90 538 -167 811 -143 510 -376 1049 -648 1500 -135 225 -425
643 -491 710 -8 8 -28 33 -44 55 -17 22 -34 45 -40 51 -5 6 -30 35 -55 65
-159 190 -499 540 -690 709 -258 230 -528 438 -810 627 -803 538 -1711 915
-2605 1082 -179 33 -266 47 -340 56 -27 3 -64 8 -81 10 -16 2 -59 7 -95 10
-35 4 -80 8 -99 10 -224 26 -773 26 -1015 0 -160 -18 -294 -34 -315 -40 -8 -2
-35 -7 -60 -10 -85 -12 -285 -55 -420 -91 -1017 -267 -1872 -845 -2504 -1693
-60 -80 -59 -80 -76 14 -6 33 -13 71 -16 85 -31 163 -110 518 -140 630 -15 52
-27 102 -29 110 -2 8 -11 44 -20 80 -9 36 -18 72 -20 80 -2 8 -24 87 -50 175
-157 541 -348 1031 -547 1401 l-33 61 -58 -32z m877 -3147 c17 -103 49 -313
61 -398 3 -25 10 -70 15 -100 5 -30 11 -77 15 -105 8 -72 25 -204 31 -245 6
-42 42 -363 50 -440 3 -30 7 -69 9 -87 3 -17 7 -64 10 -105 3 -40 8 -86 10
-103 2 -16 7 -64 10 -105 3 -41 8 -93 10 -115 7 -59 13 -139 20 -235 10 -134
14 -191 20 -255 5 -61 9 -111 21 -315 4 -63 8 -133 9 -155 2 -22 6 -105 9
-185 4 -80 9 -170 11 -200 6 -97 17 -395 31 -852 16 -501 9 -2074 -11 -2548
-1 -47 -6 -173 -10 -280 -7 -222 -12 -351 -20 -495 -3 -55 -7 -143 -10 -195
-3 -52 -7 -131 -10 -175 -2 -44 -7 -129 -10 -190 -9 -167 -14 -253 -20 -325
-3 -36 -7 -96 -10 -135 -3 -38 -7 -101 -10 -140 -3 -38 -7 -100 -10 -137 -3
-38 -8 -101 -11 -140 -5 -72 -7 -89 -19 -238 -3 -41 -8 -91 -10 -110 -4 -39
-13 -127 -20 -210 -3 -30 -7 -75 -10 -100 -2 -25 -7 -76 -11 -115 -13 -157
-24 -268 -29 -295 -3 -14 -7 -50 -10 -80 -5 -52 -8 -80 -20 -167 -3 -21 -7
-60 -10 -88 -3 -27 -8 -66 -10 -85 -3 -19 -8 -57 -10 -85 -5 -50 -12 -106 -20
-154 -2 -14 -13 -93 -25 -176 -11 -82 -23 -161 -25 -175 -7 -50 -17 -116 -20
-140 -9 -67 -28 -184 -50 -315 -9 -49 -18 -103 -21 -120 -4 -25 -54 -281 -68
-351 -102 -483 -213 -823 -315 -961 -49 -67 -85 -54 -134 51 -62 130 -146 468
-182 731 -13 95 -17 121 -20 145 -8 48 -34 266 -41 330 -3 36 -7 72 -9 80 -1
8 -6 51 -9 95 -4 44 -9 98 -12 120 -2 22 -6 67 -9 100 -2 33 -7 85 -9 115 -3
30 -8 91 -11 135 -3 44 -8 103 -10 130 -3 28 -7 91 -10 140 -3 50 -8 117 -10
150 -2 33 -7 114 -10 180 -4 66 -8 138 -10 160 -2 22 -7 114 -10 205 -4 91 -8
188 -10 215 -2 28 -7 129 -10 225 -3 96 -8 220 -10 275 -7 157 -24 792 -30
1095 -24 1209 -24 4047 0 4345 2 28 7 109 11 180 3 72 8 144 9 160 1 17 5 75
9 130 4 55 8 107 11 115 2 8 7 51 10 95 14 173 71 566 115 800 11 55 21 111
24 125 11 64 70 319 102 440 158 603 368 1131 640 1605 49 85 92 155 95 155 3
0 14 -46 23 -102z"/>
<path d="M11467 16424 c-1 -1 -74 -5 -162 -9 -87 -3 -162 -8 -165 -10 -3 -1
-44 -6 -92 -10 -48 -3 -98 -8 -110 -10 -13 -2 -72 -11 -133 -20 -114 -17 -133
-20 -174 -29 -14 -3 -70 -15 -125 -26 -474 -98 -917 -284 -1202 -506 -192
-149 -322 -336 -362 -519 -18 -84 -46 -287 -57 -415 -3 -36 -7 -85 -10 -110
-2 -25 -7 -74 -10 -110 -3 -36 -7 -85 -10 -110 -2 -25 -7 -79 -10 -120 -3 -41
-8 -100 -10 -130 -2 -30 -7 -98 -10 -150 -3 -52 -8 -117 -10 -145 -5 -70 -17
-267 -20 -345 -13 -265 -16 -325 -20 -400 -9 -158 -14 -262 -30 -710 -3 -80
-8 -192 -10 -250 -4 -93 -10 -307 -20 -725 -19 -772 -24 -2067 -11 -2800 7
-405 8 -453 20 -795 4 -96 9 -242 11 -325 3 -82 8 -184 10 -225 3 -41 7 -127
10 -190 5 -107 7 -149 20 -320 2 -36 7 -105 10 -155 4 -49 8 -108 10 -130 2
-22 6 -76 9 -120 4 -44 9 -100 12 -125 2 -25 6 -70 9 -100 2 -30 7 -75 10
-100 2 -25 7 -70 10 -100 6 -54 32 -272 40 -320 2 -14 6 -47 10 -75 3 -27 10
-75 15 -105 5 -30 12 -73 15 -95 3 -22 10 -62 16 -90 5 -27 11 -61 14 -74 56
-292 125 -530 198 -676 62 -125 123 -194 205 -232 50 -23 66 -25 215 -27 230
-1 375 13 592 60 683 148 1418 572 2155 1243 94 85 412 401 481 477 19 21 80
89 135 149 361 400 747 908 1083 1425 87 134 381 615 381 623 0 2 23 44 51 92
114 199 387 735 473 930 27 61 66 147 88 193 21 46 38 85 38 87 0 2 36 93 80
202 114 280 167 424 234 633 21 63 41 124 46 135 8 17 94 310 105 355 2 8 23
96 48 195 66 261 138 649 153 820 3 33 7 74 9 90 14 110 20 233 20 465 0 230
-10 493 -20 510 -1 3 -6 37 -9 75 -4 39 -8 81 -11 95 -2 14 -11 70 -20 125
-89 565 -316 1116 -639 1552 -122 165 -283 341 -446 488 -55 50 -75 67 -199
165 -73 57 -291 204 -364 244 -26 14 -58 32 -70 40 -127 79 -450 223 -667 298
-160 55 -478 142 -590 162 -56 9 -174 31 -220 41 -14 3 -44 7 -67 10 -24 3
-62 8 -85 11 -77 10 -92 12 -158 19 -176 18 -341 27 -543 29 -92 1 -169 1
-170 0z m548 -148 c28 -2 84 -8 125 -11 41 -4 77 -8 80 -10 3 -2 35 -6 71 -9
36 -4 79 -9 95 -11 16 -3 43 -7 59 -10 17 -2 48 -7 70 -10 22 -4 48 -8 57 -11
10 -3 30 -7 45 -10 196 -32 518 -122 736 -204 1032 -389 1737 -1098 2058
-2070 72 -220 119 -421 164 -710 2 -14 7 -56 10 -95 4 -38 9 -83 11 -100 8
-61 18 -284 18 -415 0 -153 -11 -447 -17 -458 -3 -4 -7 -41 -11 -82 -5 -62
-30 -244 -52 -375 -50 -302 -165 -747 -291 -1130 -52 -157 -193 -542 -226
-617 -8 -18 -36 -85 -62 -148 -349 -848 -885 -1791 -1469 -2585 -173 -235
-539 -689 -625 -776 -9 -8 -52 -55 -96 -104 -203 -224 -535 -545 -750 -725
-60 -51 -121 -102 -135 -114 -117 -102 -460 -342 -664 -465 -307 -185 -784
-388 -1006 -428 -14 -2 -50 -10 -80 -18 -63 -15 -159 -31 -240 -40 -30 -3 -73
-8 -95 -10 -67 -7 -319 -7 -358 0 -72 14 -154 130 -219 310 -42 116 -109 374
-132 512 -27 157 -35 204 -41 243 -3 25 -8 52 -10 60 -2 8 -7 38 -10 66 -3 28
-7 59 -9 70 -2 10 -7 48 -11 84 -4 36 -9 72 -10 80 -2 8 -8 67 -14 130 -7 63
-14 129 -16 145 -2 17 -6 62 -10 100 -3 39 -7 88 -10 110 -2 22 -7 78 -10 125
-4 47 -8 101 -10 120 -2 19 -6 82 -10 140 -3 58 -8 125 -10 150 -2 25 -6 90
-9 145 -6 94 -9 157 -20 380 -3 50 -8 182 -11 295 -3 113 -8 232 -10 265 -14
225 -20 794 -20 1795 0 1115 5 1451 30 2290 3 118 8 253 10 300 2 47 6 159 10
250 13 371 22 568 30 675 2 33 7 121 10 195 3 74 8 164 10 200 2 36 7 108 10
160 18 275 25 388 31 455 3 33 7 85 9 116 3 30 7 78 9 105 3 27 12 125 21 217
20 224 50 431 71 492 129 384 683 714 1477 879 156 33 191 39 302 52 28 4 53
8 56 10 4 2 37 6 75 9 38 3 78 8 89 10 11 2 72 7 135 11 63 3 117 8 119 10 5
5 619 -4 676 -10z"/>
<path d="M11058 15735 c-1 -1 -43 -5 -93 -8 -49 -3 -126 -15 -170 -27 -75 -19
-95 -26 -170 -54 -113 -42 -317 -166 -426 -258 -103 -87 -259 -250 -308 -321
-8 -12 -18 -24 -21 -27 -15 -13 -108 -163 -146 -235 -126 -245 -161 -433 -124
-685 24 -169 26 -186 45 -330 9 -69 18 -132 20 -140 2 -8 7 -48 10 -89 4 -41
8 -82 10 -90 1 -9 6 -50 10 -91 3 -41 8 -82 10 -90 2 -8 7 -44 10 -80 3 -36 7
-74 9 -85 2 -11 7 -64 11 -117 3 -54 8 -110 10 -125 2 -16 6 -77 10 -136 3
-60 8 -116 10 -126 26 -136 26 -1490 0 -1881 -2 -30 -6 -118 -9 -195 -6 -131
-11 -225 -21 -370 -2 -33 -7 -109 -10 -170 -3 -60 -8 -135 -10 -165 -3 -30 -7
-104 -10 -165 -4 -60 -8 -135 -10 -165 -26 -363 -26 -1366 0 -1705 2 -33 7
-96 10 -140 9 -138 18 -239 30 -342 3 -24 7 -64 10 -90 3 -27 8 -66 12 -88 3
-22 7 -49 9 -60 1 -11 5 -42 9 -70 11 -83 75 -394 100 -490 72 -271 186 -505
299 -616 61 -61 99 -88 168 -121 l61 -29 36 33 c20 18 128 125 241 239 182
183 293 298 496 518 32 35 68 74 79 85 11 12 40 44 64 71 24 28 65 73 90 100
26 28 107 120 181 205 74 85 137 157 140 160 3 3 39 46 80 95 41 50 77 92 80
95 31 29 388 469 571 705 210 270 498 658 589 795 6 8 27 38 46 65 139 193
478 718 635 983 55 94 137 236 167 292 20 36 55 101 80 145 46 84 231 458 277
560 178 396 304 745 399 1105 27 102 82 370 90 435 3 22 9 74 15 115 32 248
34 539 6 760 -11 87 -17 125 -20 130 -2 3 -6 26 -10 50 -19 135 -107 394 -192
563 -108 217 -233 387 -420 573 -453 451 -1136 768 -2053 955 -107 22 -213 42
-235 45 -50 7 -63 10 -150 24 -108 17 -117 18 -160 24 -55 8 -98 13 -180 21
-38 4 -79 9 -90 11 -11 2 -54 6 -95 10 -41 3 -80 7 -87 9 -6 2 -13 2 -15 0z
m177 -149 c16 -3 52 -8 80 -11 27 -3 66 -8 85 -11 19 -2 55 -6 80 -9 25 -3 70
-10 100 -15 30 -5 73 -12 95 -15 56 -8 216 -34 240 -39 11 -2 79 -16 150 -30
117 -24 363 -83 440 -106 704 -208 1175 -459 1530 -815 261 -262 431 -549 528
-890 26 -92 54 -222 61 -285 3 -19 8 -60 12 -90 3 -30 8 -75 10 -100 5 -62 4
-378 -1 -415 -2 -16 -7 -62 -10 -100 -3 -39 -7 -80 -9 -92 -3 -12 -7 -43 -11
-70 -8 -59 -31 -182 -50 -273 -3 -14 -7 -34 -9 -45 -34 -170 -129 -482 -228
-745 -362 -962 -1052 -2106 -2002 -3320 -151 -193 -431 -539 -529 -653 -25
-29 -73 -86 -108 -127 -78 -92 -411 -473 -419 -480 -4 -3 -30 -32 -60 -65 -29
-33 -110 -121 -179 -195 -69 -74 -153 -163 -186 -199 -122 -131 -441 -453
-458 -462 -13 -8 -26 -3 -54 18 -142 107 -257 329 -338 651 -32 128 -82 382
-90 457 -3 33 -8 69 -10 80 -9 39 -14 79 -21 152 -3 41 -7 82 -9 92 -3 14 -7
61 -21 211 -4 43 -12 162 -19 280 -23 388 -24 1178 0 1550 1 30 6 111 10 180
3 69 8 148 10 175 3 28 7 95 10 150 3 55 7 127 9 160 7 97 19 323 31 585 3 80
8 170 10 200 2 30 7 170 11 310 16 599 4 1247 -31 1620 -2 19 -6 78 -10 130
-3 52 -8 111 -10 130 -3 19 -7 66 -11 105 -3 38 -7 77 -9 87 -2 9 -6 48 -10
85 -3 37 -8 79 -10 93 -3 14 -7 52 -10 85 -3 33 -8 77 -11 97 -3 21 -6 50 -8
66 -2 16 -9 64 -15 108 -14 94 -18 123 -26 189 -4 28 -10 77 -15 110 -28 185
-29 269 -5 373 74 322 339 686 665 913 161 112 356 194 530 222 30 4 263 -1
305 -7z"/>
<path d="M11500 14949 c-192 -25 -357 -115 -525 -284 -170 -171 -307 -421
-340 -620 -6 -41 -7 -161 -1 -205 2 -14 6 -54 10 -90 4 -36 9 -76 11 -90 2
-14 7 -52 10 -85 6 -59 7 -70 19 -150 4 -22 8 -56 10 -75 4 -29 22 -171 41
-313 13 -93 16 -115 20 -147 3 -19 7 -55 10 -79 3 -23 7 -55 9 -70 6 -39 18
-123 30 -218 2 -15 9 -64 15 -108 5 -44 13 -114 17 -155 3 -41 7 -82 9 -90 2
-8 6 -58 10 -110 4 -52 8 -111 10 -130 5 -46 15 -227 20 -370 3 -63 7 -281 10
-485 6 -502 13 -688 40 -1010 2 -27 7 -86 10 -130 4 -44 8 -91 10 -105 2 -14
6 -50 10 -80 6 -50 36 -261 50 -350 44 -271 126 -553 211 -724 79 -159 160
-242 281 -288 l41 -16 49 52 c27 28 75 83 108 121 33 39 65 75 71 80 5 6 43
49 82 98 40 48 103 124 140 170 70 84 249 313 311 396 19 25 37 48 40 51 9 7
154 206 271 370 191 270 400 585 524 790 46 77 51 84 68 110 9 15 51 87 93
161 43 73 86 150 98 169 31 55 248 486 289 575 20 44 55 125 78 180 22 55 45
109 50 120 13 27 63 166 111 304 78 228 147 515 169 706 5 50 13 110 16 135 7
59 7 308 -1 385 -5 53 -13 103 -29 195 -2 14 -13 59 -24 100 -98 362 -306 645
-636 862 -216 143 -561 280 -861 342 -76 16 -238 46 -275 51 -25 4 -61 8 -80
11 -19 3 -46 7 -60 9 -14 3 -56 7 -95 11 -38 3 -83 7 -100 10 -36 4 -221 14
-325 18 -41 1 -100 -1 -130 -5z m395 -143 c11 -2 61 -7 110 -10 50 -4 97 -9
105 -11 8 -2 40 -7 70 -10 118 -13 217 -31 395 -72 772 -178 1235 -565 1370
-1146 47 -202 55 -482 20 -732 -16 -121 -36 -219 -70 -356 -43 -169 -154 -508
-195 -594 -5 -11 -28 -65 -50 -120 -80 -194 -282 -605 -400 -810 -31 -55 -68
-120 -82 -145 -153 -275 -543 -866 -797 -1207 -25 -33 -55 -73 -66 -89 -42
-57 -380 -491 -425 -544 -25 -30 -91 -109 -146 -174 -54 -66 -115 -138 -135
-160 -20 -23 -47 -54 -60 -69 l-24 -28 -34 25 c-97 72 -188 257 -260 530 -28
106 -74 326 -86 411 -3 23 -7 50 -9 61 -2 12 -7 45 -11 75 -3 30 -8 65 -10 79
-4 27 -12 100 -20 165 -2 22 -7 76 -10 120 -3 44 -7 98 -10 120 -4 41 -12 158
-21 295 -2 41 -6 208 -9 370 -8 470 -14 757 -20 875 -4 102 -7 147 -20 340 -8
112 -19 226 -30 315 -2 19 -7 60 -10 90 -4 30 -8 66 -10 80 -2 14 -7 50 -10
80 -3 30 -12 98 -20 150 -8 52 -17 118 -20 145 -4 28 -8 61 -10 75 -10 72 -15
108 -19 140 -3 19 -12 89 -21 155 -8 66 -18 138 -21 160 -2 22 -7 51 -9 65 -2
14 -7 52 -10 85 -13 117 -25 220 -31 250 -13 63 -12 216 2 275 29 123 99 269
187 390 44 60 161 180 217 222 81 61 195 114 305 142 22 5 377 -1 410 -8z"/>
<path d="M11826 13614 c-261 -51 -536 -334 -537 -555 -1 -61 11 -92 66 -168
49 -68 92 -158 114 -242 19 -72 24 -99 37 -197 11 -85 6 -402 -11 -642 -25
-368 -25 -912 0 -1115 2 -16 7 -57 10 -90 9 -84 36 -264 51 -340 3 -11 7 -36
10 -55 14 -80 57 -211 99 -297 51 -103 114 -170 184 -193 l41 -13 45 49 c157
170 449 538 628 794 66 95 260 390 295 450 18 30 37 62 42 70 32 49 117 205
182 335 307 607 405 1119 283 1480 -84 245 -254 425 -520 551 -138 66 -344
126 -506 148 -19 3 -65 10 -104 15 -38 6 -115 13 -170 16 -55 3 -116 7 -135 9
-19 2 -66 -3 -104 -10z m304 -138 c14 -2 56 -7 94 -11 270 -27 546 -118 716
-236 164 -114 262 -253 314 -446 19 -72 23 -115 24 -228 2 -252 -58 -506 -199
-845 -48 -117 -223 -452 -312 -600 -161 -267 -415 -635 -594 -860 -97 -123
-216 -267 -260 -317 -52 -59 -57 -62 -74 -47 -58 52 -130 256 -164 466 -3 18
-7 44 -10 58 -4 25 -8 57 -20 159 -4 30 -8 61 -10 70 -1 9 -6 61 -10 116 -4
55 -9 120 -11 145 -6 76 -6 529 0 635 4 55 8 138 11 185 2 47 8 141 11 210 10
162 10 467 2 550 -21 196 -77 352 -176 494 -52 74 -53 101 -7 192 67 134 217
263 360 310 38 13 244 13 315 0z"/>
</g>
</svg>
