<svg width="100%" height="100%" viewBox="0 0 842 595" version="1.1"
     xmlns="http://www.w3.org/2000/svg"
     xml:space="preserve"
     style="fill-rule:evenodd;clip-rule:evenodd;">
    <g transform="matrix(1.6327,0,0,1.6327,-5.61448,-188.229)">
        <g transform="matrix(-0.0996161,0.00875421,0.00875421,0.0996161,640.156,-18.6429)">
            <path
              d="M5050.22,2252.93C5040.67,2423.99 5045.74,2498.64 5080.71,2724.8C5090.86,2790.23 5122.44,3067.59 5050.22,3099.38C5050.98,3104.45 4047.34,2280.09 4888.32,2121.83C4967.21,2106.98 5053.34,2197.37 5050.22,2252.93Z"
              style="fill:none;fill-rule:nonzero;stroke:rgb(21,22,22);stroke-width:8.68px;"/>
        </g>
      <g transform="matrix(-0.09884,0.0151875,0.0151875,0.09884,604.559,-63.0155)">
            <path
              d="M4802.64,2462.95C4808.27,2600.69 4799.73,2623.54 4822.6,2771.35C4829.21,2814.12 4849.87,2995.4 4802.64,3016.17C4803.15,3019.49 4147.19,2480.72 4696.8,2377.3C4748.38,2367.55 4801.18,2426.63 4802.64,2462.95Z"
              style="fill:none;fill-rule:nonzero;stroke:rgb(21,22,22);stroke-width:8.68px;"/>
        </g>
      <g transform="matrix(-0.0988386,0.0151964,0.0151964,0.0988386,590.516,-62.0432)">
            <path
              d="M4608.48,2575.99C4582.52,2619.75 4606.74,2670.09 4620.18,2756.71C4624.07,2781.76 4636.18,2887.99 4608.48,2900.15C4608.79,2902.13 4224.4,2586.44 4546.46,2525.78C4576.65,2520.11 4619.33,2557.65 4608.48,2575.99Z"
              style="fill:none;fill-rule:nonzero;stroke:rgb(21,22,22);stroke-width:8.68px;"/>
        </g>
      <g transform="matrix(0.1,0,0,0.1,-252.119,71.4181)">
            <path
              d="M3801.95,1332.93C4119.3,1907.85 3755.86,4162.5 3776.56,2065.86C3790.86,614.02 6098.59,1887.07 4214.45,3003.98C3244.45,3578.94 2925.7,2678.28 3433.44,2122.26"
              style="fill:none;fill-rule:nonzero;stroke:rgb(21,22,22);stroke-width:8.68px;"/>
        </g>
      <g transform="matrix(0.1,0,0,0.1,-252.119,19.1561)">
            <path
              d="M4023.59,2204.77C3999.26,2337.15 3968.79,3283.67 4067.54,3290.82C4358.16,3311.8 4695.63,2776.48 4695.63,2476.09C4695.63,1987.34 4051.6,2052.5 4023.59,2204.77Z"
              style="fill:none;fill-rule:nonzero;stroke:rgb(21,22,22);stroke-width:8.68px;"/>
        </g>
      <g transform="matrix(0.702072,0,0,0.702072,26.1485,144.682)">
            <g transform="matrix(1,0,0,1,-13.3589,-10.7243)">
                <text x="382.01px" y="255.188px"
                      style="font-family:'EstiloText-Light', 'Estilo Text';font-size:40px;">D<tspan
                  x="415.21px 448.09px " y="255.188px 255.188px ">WA</tspan> DR
                  <tspan x="543.93px 576.81px " y="255.188px 255.188px ">WA</tspan></text>
            </g>
        <g transform="matrix(1,0,0,1,0.775459,-3.78048)">
                <text x="349.283px" y="285.491px"
                      style="font-family:'EstiloText-Light', 'Estilo Text';font-size:37.361px;">pr<tspan
                  x="378.313px 395.312px 411.826px 430.133px "
                  y="285.491px 285.491px 285.491px 285.491px ">acow</tspan>nia dr<tspan
                  x="534.259px 551.445px " y="285.491px 285.491px ">ew</tspan>na</text>
            </g>
        </g>
    </g>
</svg>
